HIERARCHY
ROOT joint_Root
{
	OFFSET 0.0 0.0 0.0
	CHANNELS 6 Xposition Yposition Zposition Zrotation Xrotation Yrotation 
	JOINT Hips
	{
		OFFSET 4.5925 91.4895 -427.239
		CHANNELS 6 Xposition Yposition Zposition Zrotation Xrotation Yrotation 
		JOINT Spine
		{
			OFFSET 15.7357 0.0 0.0
			CHANNELS 6 Xposition Yposition Zposition Zrotation Xrotation Yrotation 
			JOINT Chest
			{
				OFFSET 8.98455 -0.406207 0.0
				CHANNELS 6 Xposition Yposition Zposition Zrotation Xrotation Yrotation 
				JOINT Neck
				{
					OFFSET 16.3773 0.0 0.0
					CHANNELS 6 Xposition Yposition Zposition Zrotation Xrotation Yrotation 
					JOINT Head
					{
						OFFSET 6.45672 0.0 0.0
						CHANNELS 6 Xposition Yposition Zposition Zrotation Xrotation Yrotation 
						End Site
						{
							OFFSET 0.0 0.0 0.0
						}
					}
				}
				JOINT Shoulder_L
				{
					OFFSET 12.9942 -0.242716 4.98039
					CHANNELS 6 Xposition Yposition Zposition Zrotation Xrotation Yrotation 
					JOINT UpperArm_L
					{
						OFFSET 5.34809 0.0 0.0
						CHANNELS 6 Xposition Yposition Zposition Zrotation Xrotation Yrotation 
						JOINT LowerArm_L
						{
							OFFSET 24.3286 1.87007e-05 0.0
							CHANNELS 6 Xposition Yposition Zposition Zrotation Xrotation Yrotation 
							JOINT Hand_L
							{
								OFFSET 22.2916 0.0 0.0
								CHANNELS 6 Xposition Yposition Zposition Zrotation Xrotation Yrotation 
								End Site
								{
									OFFSET 0.0 0.0 0.0
								}
							}
						}
					}
				}
				JOINT Shoulder_R
				{
					OFFSET 12.9945 -0.242716 -4.98039
					CHANNELS 6 Xposition Yposition Zposition Zrotation Xrotation Yrotation 
					JOINT UpperArm_R
					{
						OFFSET -5.34813 0.0 0.0
						CHANNELS 6 Xposition Yposition Zposition Zrotation Xrotation Yrotation 
						JOINT LowerArm_R
						{
							OFFSET -24.3289 0.000322201 0.0
							CHANNELS 6 Xposition Yposition Zposition Zrotation Xrotation Yrotation 
							JOINT Hand_R
							{
								OFFSET -22.2915 -0.000108084 0.0
								CHANNELS 6 Xposition Yposition Zposition Zrotation Xrotation Yrotation 
								End Site
								{
									OFFSET 0.0 0.0 0.0
								}
							}
						}
					}
				}
			}
		}
		JOINT UpperLeg_L
		{
			OFFSET -2.19248 -6.46944 0.0
			CHANNELS 6 Xposition Yposition Zposition Zrotation Xrotation Yrotation 
			JOINT LowerLeg_L
			{
				OFFSET 39.0811 0.0 -1.23785e-05
				CHANNELS 6 Xposition Yposition Zposition Zrotation Xrotation Yrotation 
				JOINT Foot_L
				{
					OFFSET 40.9854 0.0 -1.26872e-05
					CHANNELS 6 Xposition Yposition Zposition Zrotation Xrotation Yrotation 
					JOINT Toes_L
					{
						OFFSET 11.7543 0.0 0.0
						CHANNELS 6 Xposition Yposition Zposition Zrotation Xrotation Yrotation 
						End Site
						{
							OFFSET 0.0 0.0 0.0
						}
					}
				}
			}
		}
		JOINT UpperLeg_R
		{
			OFFSET -2.19251 6.46944 0.0
			CHANNELS 6 Xposition Yposition Zposition Zrotation Xrotation Yrotation 
			JOINT LowerLeg_R
			{
				OFFSET -39.0811 -0.00228153 -0.0401928
				CHANNELS 6 Xposition Yposition Zposition Zrotation Xrotation Yrotation 
				JOINT Foot_R
				{
					OFFSET -40.9854 0.0 0.0
					CHANNELS 6 Xposition Yposition Zposition Zrotation Xrotation Yrotation 
					JOINT Toes_R
					{
						OFFSET -11.7543 0.0 0.0
						CHANNELS 6 Xposition Yposition Zposition Zrotation Xrotation Yrotation 
						End Site
						{
							OFFSET 0.0 0.0 0.0
						}
					}
				}
			}
		}
	}
}
MOTION
Frames:	5
Frame Time:	0.0333333
0.000000 0.000000 0.000000 0.000000 0.000000 -0.000000 -270.478000 87.538000 183.337000 51.725400 85.451200 38.966700 15.735700 0.000005 -0.000001 75.725800 80.532300 -73.989800 8.984550 -0.406207 -0.000000 10.682300 -4.591820 3.901050 16.377300 -0.000001 -0.000001 14.574200 -3.379160 -0.718800 6.456720 -0.000001 -0.000000 8.842270 -2.340530 -0.288028 12.994200 -0.242716 4.980390 -90.169500 0.447193 -69.242800 5.348090 -0.000007 -0.000001 -62.819000 22.699300 -37.031000 24.328600 0.000019 0.000005 0.723450 -0.088107 -97.292400 22.291600 -0.000001 0.000005 19.100700 5.474930 -5.550210 12.994500 -0.242716 -4.980390 88.080100 7.253190 -75.130900 -5.348130 -0.000001 -0.000004 -60.510200 18.276300 12.745600 -24.328900 0.000322 -0.000009 -3.878870 -14.832600 -14.828100 -22.291500 -0.000108 -0.000004 21.634700 5.515270 -7.158740 -2.192480 -6.469440 -0.000000 -174.550000 -2.815010 3.977150 39.081100 -0.000007 -0.000012 0.010418 -0.016293 32.592900 40.985400 -0.000006 -0.000013 2.358130 0.243547 -79.826600 11.754300 -0.000000 0.000003 -2.207660 -2.476970 -21.661900 -2.192510 6.469440 -0.000001 -173.058000 21.096300 150.631000 -39.081100 -0.002282 -0.040193 0.025403 -0.023939 42.754400 -40.985400 0.000008 0.000006 9.448770 6.259050 -65.075800 -11.754300 -0.000006 -0.000006 -0.005117 -0.062597 -19.120100
0.000000 0.000000 0.000000 0.000000 0.000000 -0.000000 -267.277000 87.042200 184.397000 49.056000 85.861000 42.396900 15.735700 0.000005 -0.000001 78.381800 80.654000 -76.342200 8.984550 -0.406207 -0.000000 10.628500 -3.687210 4.421150 16.377300 -0.000001 -0.000001 14.437700 -3.754900 -0.603587 6.456720 -0.000001 -0.000000 9.031940 -3.096240 -0.710965 12.994200 -0.242716 4.980390 -90.539000 1.435340 -69.415700 5.348090 -0.000007 -0.000001 -63.395700 27.585200 -30.989300 24.328600 0.000019 0.000005 4.507620 0.576957 -82.873200 22.291600 -0.000001 0.000005 16.380400 5.450620 -4.644480 12.994500 -0.242716 -4.980390 87.635900 8.793430 -74.887300 -5.348130 -0.000001 -0.000004 -62.555800 21.703500 7.559670 -24.328900 0.000322 -0.000009 -5.342890 -16.952800 -17.777800 -22.291500 -0.000108 -0.000004 22.497000 5.547710 -8.595670 -2.192480 -6.469440 -0.000000 -173.388000 -3.347640 3.194540 39.081100 -0.000007 -0.000012 0.001074 -0.001333 38.806100 40.985400 -0.000006 -0.000013 1.735470 1.933490 -76.917700 11.754300 -0.000000 0.000003 -0.038081 -0.252379 -26.938800 -2.192510 6.469440 -0.000001 -174.303000 19.505800 152.636000 -39.081100 -0.002282 -0.040193 -0.218475 0.215754 45.783800 -40.985400 0.000008 0.000006 6.154720 4.418000 -68.482400 -11.754300 -0.000006 -0.000006 -0.001947 -0.028053 -17.713800
0.000000 0.000000 0.000000 0.000000 0.000000 -0.000000 -264.242000 86.870200 185.372000 54.366700 85.557200 38.201000 15.735700 0.000005 -0.000001 82.301400 80.633800 -79.999900 8.984550 -0.406207 -0.000000 10.858100 -2.429170 4.832050 16.377300 -0.000001 -0.000001 14.292400 -3.875200 -0.435175 6.456720 -0.000001 -0.000000 8.952870 -3.581170 -1.274030 12.994200 -0.242716 4.980390 -90.771700 2.066790 -69.520200 5.348090 -0.000007 -0.000001 -64.096200 32.142000 -25.948600 24.328600 0.000019 0.000005 9.556050 4.808030 -63.642100 22.291600 -0.000001 0.000005 12.723900 5.427650 -3.848610 12.994500 -0.242716 -4.980390 87.404200 9.763080 -75.031500 -5.348130 -0.000001 -0.000004 -63.753600 24.316400 0.950682 -24.328900 0.000322 -0.000009 -7.316430 -16.815800 -23.929300 -22.291500 -0.000108 -0.000004 22.920000 5.576400 -10.014800 -2.192480 -6.469440 -0.000000 -172.351000 -4.667550 0.666604 39.081100 -0.000007 -0.000012 0.028618 -0.026195 47.527200 40.985400 -0.000006 -0.000013 2.098580 3.143280 -69.923000 11.754300 -0.000000 0.000003 -0.107761 -0.463429 -35.958700 -2.192510 6.469440 -0.000001 -175.117000 17.833600 155.686000 -39.081100 -0.002282 -0.040193 -0.291301 0.273525 47.120900 -40.985400 0.000008 0.000006 5.530080 3.341990 -71.430600 -11.754300 -0.000006 -0.000006 -0.001384 -0.020718 -17.415600
0.000000 0.000000 0.000000 0.000000 0.000000 -0.000000 -261.419000 87.026900 186.178000 62.789300 85.509800 31.348600 15.735700 0.000005 -0.000001 85.019600 80.399900 -82.629100 8.984550 -0.406207 -0.000000 11.402500 -1.577810 4.936950 16.377300 -0.000001 -0.000001 14.349700 -3.767010 -0.104035 6.456720 -0.000001 -0.000000 8.795390 -3.832780 -1.868710 12.994200 -0.242716 4.980390 -90.968700 2.665370 -70.015400 5.348090 -0.000007 -0.000001 -64.503000 36.591000 -22.170900 24.328600 0.000019 0.000005 11.107100 13.155900 -40.855400 22.291600 -0.000001 0.000005 9.194140 5.411020 -3.302600 12.994500 -0.242716 -4.980390 87.405300 10.203700 -75.650800 -5.348130 -0.000001 -0.000004 -63.645100 27.182300 -5.626930 -24.328900 0.000322 -0.000009 -11.035100 -15.425400 -36.248500 -22.291500 -0.000108 -0.000004 24.261000 5.614120 -12.201000 -2.192480 -6.469440 -0.000000 -172.521000 -4.618350 -3.623990 39.081100 -0.000007 -0.000012 0.067426 -0.042825 57.576000 40.985400 -0.000006 -0.000013 2.952650 2.406340 -59.845200 11.754300 -0.000000 0.000003 -0.070537 -0.364607 -31.676400 -2.192510 6.469440 -0.000001 -176.402000 17.605800 159.774000 -39.081100 -0.002282 -0.040193 -0.309518 0.291852 46.982400 -40.985400 0.000008 0.000006 5.508470 3.367260 -73.661000 -11.754300 -0.000006 -0.000006 -0.001223 -0.018528 -17.326600
0.000000 0.000000 0.000000 0.000000 0.000000 -0.000000 -259.060000 87.347700 186.722000 73.720100 84.841500 21.344300 15.735700 0.000005 -0.000001 87.959400 80.172400 -85.634400 8.984550 -0.406207 -0.000000 11.893900 -0.610191 4.712360 16.377300 -0.000001 -0.000001 13.598000 -3.622680 0.754570 6.456720 -0.000001 -0.000000 8.609260 -3.688030 -2.618800 12.994200 -0.242716 4.980390 -91.198600 3.466300 -70.911100 5.348090 -0.000007 -0.000001 -67.594700 35.757600 -14.147300 24.328600 0.000019 0.000005 12.535600 28.461600 -25.053700 22.291600 -0.000001 0.000005 4.761470 5.429700 -3.864190 12.994500 -0.242716 -4.980390 87.647700 9.807780 -76.442000 -5.348130 -0.000001 -0.000004 -61.822500 30.051200 -12.638900 -24.328900 0.000322 -0.000009 -14.027200 -10.537400 -53.808800 -22.291500 -0.000108 -0.000004 26.689600 5.642000 -14.240000 -2.192480 -6.469440 -0.000000 -173.538000 -4.460650 -9.512470 39.081100 -0.000007 -0.000012 0.087247 -0.037208 66.900300 40.985400 -0.000006 -0.000013 2.063500 -0.972997 -51.022000 11.754300 -0.000000 0.000003 -0.003887 -0.050264 -18.621300 -2.192510 6.469440 -0.000001 -177.621000 17.270700 163.219000 -39.081100 -0.002282 -0.040193 -0.315440 0.308322 45.948800 -40.985400 0.000008 0.000006 5.615230 4.061300 -75.039200 -11.754300 -0.000006 -0.000006 -0.001611 -0.023731 -17.538100
